<svg xmlns="http://www.w3.org/2000/svg" xmlns:xlink="http://www.w3.org/1999/xlink" width="253.91" height="32" viewBox="0 0 253.91 32">
  <defs>
    <linearGradient id="linear-gradient" x1="-2.582" y1="0.5" x2="19.673" y2="0.5" gradientUnits="objectBoundingBox">
      <stop offset="0" stop-color="#fb157b"/>
      <stop offset="1" stop-color="#fe5719"/>
    </linearGradient>
    <linearGradient id="linear-gradient-2" x1="-2.737" y1="0.499" x2="13.698" y2="0.499" xlink:href="#linear-gradient"/>
    <linearGradient id="linear-gradient-3" x1="-3.651" y1="0.5" x2="11.898" y2="0.5" xlink:href="#linear-gradient"/>
    <linearGradient id="linear-gradient-4" x1="-3.438" y1="0.5" x2="7.523" y2="0.5" xlink:href="#linear-gradient"/>
    <linearGradient id="linear-gradient-5" x1="-6.482" y1="0.5" x2="9.014" y2="0.5" xlink:href="#linear-gradient"/>
    <linearGradient id="linear-gradient-6" x1="-8.313" y1="0.5" x2="8.544" y2="0.5" xlink:href="#linear-gradient"/>
    <linearGradient id="linear-gradient-7" x1="-29.025" y1="0.5" x2="22.28" y2="0.5" xlink:href="#linear-gradient"/>
    <linearGradient id="linear-gradient-8" x1="-35.537" y1="0.5" x2="23.83" y2="0.5" xlink:href="#linear-gradient"/>
    <linearGradient id="linear-gradient-9" x1="-9.696" y1="0.5" x2="5.774" y2="0.5" xlink:href="#linear-gradient"/>
    <linearGradient id="linear-gradient-10" x1="-36.123" y1="0.5" x2="15.151" y2="0.5" xlink:href="#linear-gradient"/>
    <linearGradient id="linear-gradient-11" x1="-12.437" y1="0.5" x2="4.434" y2="0.5" xlink:href="#linear-gradient"/>
    <linearGradient id="linear-gradient-12" x1="-12.605" y1="0.5" x2="3.02" y2="0.5" xlink:href="#linear-gradient"/>
    <linearGradient id="linear-gradient-13" x1="-92.471" y1="0.499" x2="13.214" y2="0.499" xlink:href="#linear-gradient"/>
    <linearGradient id="linear-gradient-14" x1="-33.276" y1="0.499" x2="4.145" y2="0.499" xlink:href="#linear-gradient"/>
    <linearGradient id="linear-gradient-15" x1="-29.278" y1="0.498" x2="2.625" y2="0.498" xlink:href="#linear-gradient"/>
    <linearGradient id="linear-gradient-16" x1="-21.443" y1="0.5" x2="1.023" y2="0.5" xlink:href="#linear-gradient"/>
    <linearGradient id="linear-gradient-17" x1="-0.012" y1="0.5" x2="10.891" y2="0.5" xlink:href="#linear-gradient"/>
  </defs>
  <g id="Group_1157" data-name="Group 1157" transform="translate(-314 -44)">
    <path id="Path_18" data-name="Path 18" d="M83.895,23.23a4.258,4.258,0,0,1-1.807.35c-1.126,0-1.679-.653-1.679-1.99v-5.6h3.785V12.409H80.429V6.73L76.091,8.859v3.55H73.44v3.582H76.1V21.6c0,2.181.5,3.737,1.528,4.64a5.621,5.621,0,0,0,4.135,1.254,9.949,9.949,0,0,0,3.112-.653Z" transform="translate(269.787 39.948)" fill="url(#linear-gradient)"/>
    <path id="Path_19" data-name="Path 19" d="M119.673,22.208a7.619,7.619,0,0,0-6.041-2.388,7.821,7.821,0,0,0-5.743,2.105A7.45,7.45,0,0,0,105.76,27.5a7.719,7.719,0,0,0,2.181,5.767,8.4,8.4,0,0,0,6.141,2.133,8.766,8.766,0,0,0,6.392-2.185l-2.456-2.706a5.606,5.606,0,0,1-3.837,1.154,4.708,4.708,0,0,1-2.786-.728,2.822,2.822,0,0,1-1.25-1.886h10.932C121.528,26.068,121.05,23.816,119.673,22.208Zm-9.528,3.653a3.232,3.232,0,0,1,1.254-1.755,4.067,4.067,0,0,1,2.233-.633,4.621,4.621,0,0,1,2.479.625,2.1,2.1,0,0,1,1.079,1.763Z" transform="translate(250.33 32.068)" fill="url(#linear-gradient-2)"/>
    <path id="Path_20" data-name="Path 20" d="M161.707,20.211l-.135,1.731a3.582,3.582,0,0,0-1.755-1.5,6.077,6.077,0,0,0-2.631-.553,7.327,7.327,0,0,0-7.8,7.773,7.674,7.674,0,0,0,2.129,5.691,7.345,7.345,0,0,0,5.524,2.058,7.056,7.056,0,0,0,2.583-.577,4.274,4.274,0,0,0,1.99-1.592l.227,1.859h3.912V20.211Zm-1.254,10.2a3.8,3.8,0,0,1-2.834,1.154,3.932,3.932,0,0,1-2.786-1.055,3.789,3.789,0,0,1-1.1-2.857,3.844,3.844,0,0,1,1.075-2.881,3.952,3.952,0,0,1,2.786-1.079,3.645,3.645,0,0,1,2.909,1.194,4.294,4.294,0,0,1,1.071,2.917A3.582,3.582,0,0,1,160.454,30.415Z" transform="translate(224.064 32.036)" fill="url(#linear-gradient-3)"/>
    <path id="Path_21" data-name="Path 21" d="M221.345,21.46a5.708,5.708,0,0,0-4.286-1.628,5.3,5.3,0,0,0-2.786.653,6.157,6.157,0,0,0-2.129,2.129,4.408,4.408,0,0,0-4.338-2.758,4.143,4.143,0,0,0-3.912,1.99l-.3-1.679H199.81V35.051h4.31v-7.96a3.725,3.725,0,0,1,.728-2.308,2.284,2.284,0,0,1,1.954-.975c1.707,0,2.559,1.1,2.559,3.255v7.96h4.286V27.06a3.379,3.379,0,0,1,.752-2.229,2.388,2.388,0,0,1,1.99-.927c1.5,0,2.257,1.027,2.257,3.108v8.039h4.378V26.929C223,24.369,222.447,22.539,221.345,21.46Z" transform="translate(193.71 32.063)" fill="url(#linear-gradient-4)"/>
    <path id="Path_22" data-name="Path 22" d="M281.113,13.352a7.11,7.11,0,0,0-5.341-2.093,5.655,5.655,0,0,0-4.664,2.105V5.48L266.73,7.609v18.8h3.884l.251-1.906a5.894,5.894,0,0,0,4.939,2.2,7.046,7.046,0,0,0,5.317-2.129,7.836,7.836,0,0,0,2.03-5.572A7.611,7.611,0,0,0,281.113,13.352Zm-3.287,8.358a3.371,3.371,0,0,1-2.655,1.09,4.378,4.378,0,0,1-2.834-.931,3.445,3.445,0,0,1-1.194-2.881,3.455,3.455,0,0,1,1.194-2.786,4.207,4.207,0,0,1,2.81-1.031,3.347,3.347,0,0,1,2.631,1.079,3.813,3.813,0,0,1,1,2.758,3.932,3.932,0,0,1-.955,2.718Z" transform="translate(153.423 40.701)" fill="url(#linear-gradient-5)"/>
    <path id="Path_23" data-name="Path 23" d="M325.391,20.72v7.673a3.661,3.661,0,0,1-.951,2.583,2.941,2.941,0,0,1-2.388,1.051q-3.08,0-3.084-3.458V20.72H314.59v7.9c0,4.839,2.081,7.271,6.22,7.271a5.464,5.464,0,0,0,4.812-2.257l.151,1.958h3.912V20.72Z" transform="translate(124.61 31.526)" fill="url(#linear-gradient-6)"/>
    <path id="Path_24" data-name="Path 24" d="M365.134,5.31a2.531,2.531,0,0,0-3.383,0A2.257,2.257,0,0,0,361,7.116a2.257,2.257,0,0,0,.776,1.807,2.531,2.531,0,0,0,3.383,0,2.249,2.249,0,0,0,.8-1.807,2.249,2.249,0,0,0-.816-1.807Zm-3.86,5.719V25.921h4.338V11.029Z" transform="translate(96.675 41.194)" fill="url(#linear-gradient-7)"/>
    <path id="Path_25" data-name="Path 25" d="M382,7.747V26.528h4.286V5.67Z" transform="translate(84.028 40.586)" fill="url(#linear-gradient-8)"/>
    <path id="Path_26" data-name="Path 26" d="M412.087,7.609v5.743a5.723,5.723,0,0,0-4.664-2.093,7.134,7.134,0,0,0-5.365,2.105A7.732,7.732,0,0,0,400,18.991a7.689,7.689,0,0,0,2.034,5.572,6.972,6.972,0,0,0,5.313,2.133,5.852,5.852,0,0,0,4.939-2.181l.275,1.906h3.888V5.48Zm-1.254,14.264a4.31,4.31,0,0,1-2.81.927,3.435,3.435,0,0,1-2.682-1.079,3.932,3.932,0,0,1-.963-2.73,3.936,3.936,0,0,1,1-2.758,3.407,3.407,0,0,1,2.659-1.079,4.175,4.175,0,0,1,2.786,1.031,3.458,3.458,0,0,1,1.194,2.786A3.448,3.448,0,0,1,410.833,21.873Z" transform="translate(73.191 40.701)" fill="url(#linear-gradient-9)"/>
    <path id="Path_27" data-name="Path 27" d="M453.9,5.309a2.535,2.535,0,0,0-3.387,0,2.257,2.257,0,0,0-.8,1.807,2.257,2.257,0,0,0,.8,1.807,2.535,2.535,0,0,0,3.387,0,2.256,2.256,0,0,0,.776-1.807,2.257,2.257,0,0,0-.776-1.807Zm-3.864,5.719V25.92h4.338V11.028Z" transform="translate(43.262 41.194)" fill="url(#linear-gradient-10)"/>
    <path id="Path_28" data-name="Path 28" d="M479.495,19.823a5.532,5.532,0,0,0-4.816,2.257l-.147-1.906H470.62V35.042h4.286V27.369a3.813,3.813,0,0,1,.927-2.583,3.013,3.013,0,0,1,2.432-1.051c2.058,0,3.06,1.154,3.06,3.458v7.848H485.7V27.17C485.688,22.275,483.63,19.823,479.495,19.823Z" transform="translate(30.677 32.073)" fill="url(#linear-gradient-11)"/>
    <path id="Path_29" data-name="Path 29" d="M527.784,30.51A5.627,5.627,0,0,0,531,25.3a6.1,6.1,0,0,0-1.556-4.262l1.926-2.257-3.136-2.408-1.64,2.105a6.069,6.069,0,0,0-3.486-.824,8.64,8.64,0,0,0-5.691,1.99,7,7,0,0,0-2.332,5.611,7.064,7.064,0,0,0,2.181,5.44,8.249,8.249,0,0,0,5.842,2.034c2.432,0,3.61.852,3.61,2.555a2.261,2.261,0,0,1-1.047,2.034,4.64,4.64,0,0,1-2.607.724c-2.36,0-3.582-1-3.737-3.009h-4.036a6.266,6.266,0,0,0,1.954,5.042,8.4,8.4,0,0,0,5.818,1.779,9.611,9.611,0,0,0,5.691-1.707,5.609,5.609,0,0,0,2.356-4.863A4.929,4.929,0,0,0,527.784,30.51Zm-2.03-2.655a3.916,3.916,0,0,1-2.658.927,4.032,4.032,0,0,1-2.758-.979,3.275,3.275,0,0,1-1.078-2.559,3.645,3.645,0,0,1,1.055-2.758,4.027,4.027,0,0,1,2.786-.975,3.51,3.51,0,0,1,2.666,1.079,3.582,3.582,0,0,1,1.078,2.655,3.263,3.263,0,0,1-1.078,2.611Z" transform="translate(3.911 34.145)" fill="url(#linear-gradient-12)"/>
    <path id="Path_30" data-name="Path 30" d="M560.737,52.1a1.194,1.194,0,0,0-1.656,0,1.1,1.1,0,0,0-.374.876,1.07,1.07,0,0,0,.374.88,1.194,1.194,0,0,0,1.656,0,1.07,1.07,0,0,0,.374-.88,1.094,1.094,0,0,0-.374-.876Z" transform="translate(-22.353 12.838)" fill="url(#linear-gradient-13)"/>
    <path id="Path_31" data-name="Path 31" d="M573.295,43.946a2.134,2.134,0,0,1-.677.4,2.388,2.388,0,0,1-.8.151,1.934,1.934,0,0,1-1.329-.5,1.743,1.743,0,0,1-.525-1.329,1.875,1.875,0,0,1,.525-1.4,2.022,2.022,0,0,1,1.381-.5,2.181,2.181,0,0,1,1.353.426l1.194-1.329a3.407,3.407,0,0,0-2.635-1,4.1,4.1,0,0,0-2.806,1,3.673,3.673,0,0,0-1.154,2.81,3.391,3.391,0,0,0,1.154,2.806,4.135,4.135,0,0,0,2.81,1,3.853,3.853,0,0,0,2.834-1.126Z" transform="translate(-27.842 20.61)" fill="url(#linear-gradient-14)"/>
    <path id="Path_32" data-name="Path 32" d="M592.917,39.944a4.406,4.406,0,0,0-5.767,0,3.942,3.942,0,0,0,0,5.468,3.924,3.924,0,0,0,2.881,1.071,4.028,4.028,0,0,0,2.909-1.051,4,4,0,0,0-.024-5.488Zm-1.5,4.063a1.719,1.719,0,0,1-1.381.549,1.628,1.628,0,0,1-1.353-.549,1.99,1.99,0,0,1-.478-1.329,2.018,2.018,0,0,1,.478-1.353,1.632,1.632,0,0,1,1.353-.577,1.723,1.723,0,0,1,1.381.561,2.149,2.149,0,0,1,.45,1.353,1.99,1.99,0,0,1-.45,1.345Z" transform="translate(-38.812 20.6)" fill="url(#linear-gradient-15)"/>
    <path id="Path_33" data-name="Path 33" d="M620.071,39.612a2.826,2.826,0,0,0-2.081-.8,2.6,2.6,0,0,0-1.377.326,2.985,2.985,0,0,0-1.055,1.055,2.129,2.129,0,0,0-2.105-1.353,2.046,2.046,0,0,0-1.93.975l-.127-.828H609.54v7.263h2.105V42.37A1.882,1.882,0,0,1,612,41.24a1.118,1.118,0,0,1,.951-.478c.852,0,1.254.529,1.254,1.592v3.884h2.105V42.37a1.783,1.783,0,0,1,.35-1.106,1.218,1.218,0,0,1,.979-.45c.728,0,1.1.5,1.1,1.5v3.936h2.125v-3.96A3.608,3.608,0,0,0,620.071,39.612Z" transform="translate(-52.956 20.633)" fill="url(#linear-gradient-16)"/>
    <path id="Path_34" data-name="Path 34" d="M14.124,7.7v5.5a3.717,3.717,0,1,1-3.717,3.713V0l-5.5,2.949V7.7H0v5.5H4.911V16.91A9.213,9.213,0,1,0,14.124,7.7Z" transform="translate(314 44)" fill="url(#linear-gradient-17)"/>
  </g>
</svg>
